<svg width="65" height="22" xmlns="http://www.w3.org/2000/svg"><g fill="none" fill-rule="evenodd"><path d="M61.71 14.536c-.071-1.327-1.006-2.413-2.514-2.413-1.532 0-2.562.989-2.73 2.413h5.244zm-6.68 5.839c-1.27-1.158-1.915-2.703-1.915-4.609 0-1.785.574-3.281 1.723-4.488 1.15-1.23 2.659-1.833 4.502-1.833 1.748 0 3.112.627 4.142 1.858 1.03 1.23 1.557 2.726 1.557 4.511v.893h-8.572c.358 1.64 1.891 2.51 3.998 2.51 1.341 0 2.61-.363 3.832-1.062v2.726c-1.078.82-2.587 1.231-4.55 1.231-1.868 0-3.448-.579-4.717-1.737zM41.224 21.96V8.49l3.42-3.44v9.161l4.173-4.449h4.196l-5.264 5.5 6.09 6.698h-4.416l-4.78-5.255v5.255h-3.419zm-6.29 0v-7.512l3.42-3.287v10.8h-3.42zm-9.629 0V9.762h3.42v2.69c1.057-3.15 4.61-2.682 4.61-2.682v3.373s-4.61-.345-4.61 3.431v5.386h-3.42zm-19.604.098L0 4.848h3.882l3.493 11.539L11.208 4.8h2.716l3.857 11.587 3.494-11.538h3.808l-5.725 17.21h-3.08l-3.712-11.417-3.784 11.416H5.7z" fill="#FFF"/><path fill="#009949" d="M34 7.727L36.222 10 46 0h-4.444"/><path d="M30.444 4.09L36.222 10l2.222-2.273-3.555-3.636h-4.445z" fill="#9FD326"/></g></svg>
