<svg width="16" height="16" xmlns="http://www.w3.org/2000/svg" xmlns:xlink="http://www.w3.org/1999/xlink"><defs><path
        d="M13 14h-1a4 4 0 1 0-8 0H3a5 5 0 0 1 10 0zm-2-9a3 3 0 0 1-3 3C6.35 8 5 6.65 5 5s1.35-3 3-3a3 3 0 0 1 3 3zm-1 0a2 2 0 0 0-2-2c-1.098 0-2 .902-2 2 0 1.098.902 2 2 2a2 2 0 0 0 2-2z" id="a"/></defs><g fill="none" fill-rule="evenodd"><mask id="b" fill="#fff"><use xlink:href="#a"/></mask><g mask="url(#b)" fill="#fff" fill-opacity=".9" opacity=".9"><rect width="16" height="16" rx="2"/></g></g></svg>
