<svg width="16" height="16" xmlns="http://www.w3.org/2000/svg" xmlns:xlink="http://www.w3.org/1999/xlink"><defs><path
        d="M11 10.918l.293.16.218.12 1.26.691c.065.036.149.014.187-.048l1.023-1.685a.12.12 0 0 0 .014-.096.129.129 0 0 0-.065-.079L12.67 9.29l-.51-.28.038-.318.028-.24a3.898 3.898 0 0 0 0-.91l-.063-.557.292-.159.218-.118 1.258-.69a.131.131 0 0 0 .063-.08.126.126 0 0 0-.014-.1l-1.024-1.684a.131.131 0 0 0-.08-.06.14.14 0 0 0-.104.015l-1.26.69-.51.281-.273-.19-.206-.145a4.163 4.163 0 0 0-.825-.451l-.538-.228V2.127c0-.069-.062-.127-.14-.127H6.98c-.08 0-.139.055-.139.127V4.07l-.31.128-.23.095a4.311 4.311 0 0 0-.825.456l-.477.333-.292-.16-.218-.12-1.26-.691a.141.141 0 0 0-.187.048L2.02 5.844a.12.12 0 0 0-.014.096c.009.033.031.06.065.079l1.259.691.51.28-.038.318-.028.24a3.898 3.898 0 0 0 0 .91l.063.557-.292.159-.218.118-1.258.69a.131.131 0 0 0-.063.08.126.126 0 0 0 .014.1l1.024 1.684c.017.03.046.05.08.06a.14.14 0 0 0 .104-.015l1.26-.69.51-.281.273.19.204.143c.256.18.532.331.827.453l.538.228V13.87c0 .072.062.13.14.13h2.047c.036 0 .07-.013.095-.036a.123.123 0 0 0 .039-.091v-1.94l.306-.129.235-.099c.256-.106.5-.236.73-.388l.57-.4zm-.819 1.666v1.304c.001.296-.122.58-.342.79-.22.209-.517.325-.822.322H6.985c-.642.002-1.164-.494-1.167-1.11v-1.306a5.32 5.32 0 0 1-.874-.483l-1.18.651c-.268.15-.588.191-.887.113a1.149 1.149 0 0 1-.704-.52L1.158 10.66a1.072 1.072 0 0 1-.119-.845c.08-.286.274-.53.542-.678l1.182-.654a4.872 4.872 0 0 1 0-.967l-1.177-.651a1.116 1.116 0 0 1-.547-.68 1.064 1.064 0 0 1 .12-.844l1.016-1.685c.32-.532 1.031-.716 1.588-.409l1.183.653a5.32 5.32 0 0 1 .874-.485V2.11c0-.616.518-1.11 1.164-1.11h2.033c.642 0 1.165.496 1.165 1.11v1.306c.309.134.602.296.874.483l1.18-.652c.268-.15.588-.19.887-.112.3.077.554.267.704.52l1.015 1.684c.156.255.198.56.119.845-.08.286-.274.53-.542.678l-1.182.654c.032.322.032.646 0 .967l1.177.651c.27.147.467.392.547.68.08.287.036.593-.12.844l-1.016 1.684c-.32.533-1.031.716-1.588.41l-1.181-.652c-.276.188-.57.35-.875.484zM8 11a3 3 0 1 1 0-6 3 3 0 0 1 0 6zm0-1a2 2 0 1 0 0-4 2 2 0 0 0 0 4z" id="a"/></defs><g fill="none" fill-rule="evenodd"><mask id="b" fill="#fff"><use xlink:href="#a"/></mask><g mask="url(#b)" fill="#fff" fill-opacity=".9" opacity=".9"><rect width="16" height="16" rx="2"/></g></g></svg>
